<?xml version="1.0" encoding="UTF-8"?>
<svg id="Layer_1" data-name="Layer 1" xmlns="http://www.w3.org/2000/svg" viewBox="0 0 408.6 335.68">
  <defs>
    <style>
      .cls-1 {
        stroke-width: 0px;
      }
    </style>
  </defs>
  <path class="cls-1" d="M69.3,335.68v-136.1c-8.6,6.9-16.4,13.1-24.5,19.6-15-18.7-29.8-37-44.8-55.7,1.4-1.2,2.5-2.2,3.7-3.2C69.5,107.37,135.2,54.48,200.9,1.58c2.6-2.1,4.1-2.1,6.7,0,65.8,52.9,131.5,105.8,197.3,158.6,1.1.9,2.2,1.9,3.7,3.1-15,18.6-29.8,37.1-44.9,55.8-8-6.4-15.7-12.6-24.3-19.4v136H69.3ZM92.8,312.27h222.7c.1-1.3.2-2.3.2-3.3,0-41.7,0-83.4-.1-125.1,0-1.8-1.2-4.1-2.6-5.2-35.1-28.4-70.4-56.6-105.6-84.9-1-.8-2.1-1.5-3.2-2.4-1.4,1.1-2.5,2-3.7,2.9-34.8,28-69.6,55.9-104.5,83.8-2.5,2-3.3,4-3.3,7.1.1,40.9,0,81.8,0,122.7.1,1.3.1,2.7.1,4.4ZM48.4,186.28c52.3-42,104.1-83.6,155.9-125.3,52.1,41.9,103.8,83.5,155.9,125.3,5.3-6.6,10.3-12.9,15.5-19.3-1.3-1.1-2.1-1.9-3.1-2.7-55.1-44.2-110.2-88.4-165.2-132.7-2.6-2.1-4.1-1.7-6.4.2-54.8,44.1-109.7,88.2-164.6,132.3-1.1.9-2.2,1.9-3.4,3,5.2,6.4,10.2,12.6,15.4,19.2Z"/>
  <path class="cls-1" d="M204.2,153.48c35.2-.3,64.5,28.7,64.8,64,.3,36-28.5,65.6-64.5,65.5-38.2-.2-64.6-30.9-64.8-64-.3-36,28.3-65.2,64.5-65.5ZM245.6,218.87c.7-21.5-17.8-41.1-39.4-41.9-23.4-.8-42.6,17.3-43.3,40.8-.6,21.4,17.8,41.2,39,41.8,24,.8,43-17,43.7-40.7Z"/>
</svg>