<?xml version="1.0" encoding="UTF-8"?>
<svg id="Layer_1" data-name="Layer 1" xmlns="http://www.w3.org/2000/svg" viewBox="0 0 32.98 33.02">
  <defs>
    <style>
      .cls-1 {
        stroke-width: 0px;
      }
    </style>
  </defs>
  <path class="cls-1" d="M19.01,22.86c2.06.12,4.08,1.02,5.76,2.66.92.9,1.62,1.93,1.84,3.24.32,1.89-1.25,4.07-3.07,4.25-.73.07-1.42-.15-2.05-.51-1.16-.65-2.3-1.34-3.45-2.01-.57-.33-1.15-.62-1.71-.97-2.2-1.37-2.19-3.32-.85-5.22.69-.98,1.83-1.44,3.53-1.44ZM19.17,24.37c-1.71-.03-2.6.58-2.98,1.8-.22.69-.07,1.28.49,1.73.35.28.74.53,1.13.76,1.2.7,2.4,1.4,3.61,2.08.4.23.82.44,1.25.62.69.28,1.28.09,1.77-.46.84-.94.96-2.05.22-3.16-1.38-2.09-3.38-3.16-5.49-3.38Z"/>
  <path class="cls-1" d="M13.84,7.86c2.74,0,4.35,1.45,4.55,3.74.07.81-.18,1.52-.75,2.08-.41.4-.86.76-1.35,1.05-1.45.87-2.93,1.71-4.4,2.55-.67.39-1.38.7-2.17.72-.56.02-1.07-.11-1.52-.43-1.4-.97-2.49-2.8-1.5-4.95.81-1.77,2.22-2.96,3.91-3.83,1.13-.58,2.34-.93,3.24-.94ZM7.84,14.1c0,.76.27,1.36.76,1.87.46.48,1.01.64,1.63.41.47-.17.92-.41,1.35-.65,1.16-.65,2.31-1.32,3.45-2,.43-.25.86-.52,1.25-.83.57-.45.73-1.05.5-1.76-.41-1.27-1.44-1.93-2.86-1.78-2.1.22-3.82,1.16-5.18,2.77-.51.61-.89,1.29-.9,1.97Z"/>
  <path class="cls-1" d="M16.25,18.68c.08-.41.17-1.14.36-1.83.38-1.35,1.78-2.12,3.11-1.77,1.38.36,2.23,1.71,1.91,3.1-.22.95-.57,1.86-1.18,2.64-.44.57-.99.98-1.71,1.13-.59.12-1.09-.02-1.52-.42-.76-.68-.94-1.58-.97-2.85ZM17.76,18.78c.05.37.05.67.14.94.3.9.49.96,1.17.32.64-.6.95-1.41,1.11-2.26.12-.59-.3-1.15-.86-1.25-.58-.11-1.15.22-1.29.8-.12.5-.19,1.01-.27,1.44Z"/>
  <path class="cls-1" d="M2.32,6.52c.91-.01,1.47.16,1.92.56.81.71,1.5,1.52,1.86,2.55.15.43.23.92.21,1.37-.07,1.23-.95,1.93-2.18,1.84-.66-.05-1.27-.25-1.8-.63-.57-.41-1.14-.83-1.61-1.34-.76-.8-.9-1.79-.46-2.8.44-1.02,1.27-1.51,2.07-1.55ZM4.77,10.6c-.14-.95-.75-1.8-1.63-2.45-.43-.32-1.04-.14-1.38.28-.33.41-.33,1.03.03,1.42.27.29.58.55.89.78.46.35.97.61,1.56.64.46.03.54-.05.52-.67Z"/>
  <path class="cls-1" d="M16.72,3.98c0,.74-.14,1.45-.55,2.08-.61.92-1.56,1.2-2.53.68-.43-.23-.83-.58-1.14-.96-.66-.8-1.01-1.76-1.2-2.77-.24-1.32.65-2.62,1.94-2.93,1.33-.32,2.67.41,3.1,1.7.12.35.2.72.26,1.09.06.37.08.74.12,1.11ZM15.21,3.97c-.06-.49-.1-.81-.15-1.13-.03-.2-.08-.39-.14-.58-.19-.56-.77-.87-1.35-.72-.54.14-.96.74-.79,1.27.21.65.5,1.28.82,1.88.13.25.4.45.65.62.33.23.49.2.64-.18.16-.42.24-.87.32-1.16Z"/>
  <path class="cls-1" d="M26.57,25.74c.13-.45.21-.91.39-1.33.38-.91,1-1.66,1.74-2.3.96-.83,2.42-.78,3.37.06.97.86,1.21,2.34.44,3.37-.86,1.15-1.96,2-3.42,2.27-1.42.26-2.46-.62-2.53-2.07ZM28.14,25.78c.05.43.13.51.54.51.07,0,.14,0,.21-.02.99-.19,1.74-.77,2.37-1.52.36-.42.24-1.09-.17-1.46-.42-.37-1.08-.4-1.46.01-.42.45-.79.95-1.12,1.47-.19.29-.24.67-.36,1.01Z"/>
  <path class="cls-1" d="M22.48,20.97c.11-1.46.54-2.61,1.32-3.61.79-1,2.24-1.2,3.33-.53,1.1.68,1.57,2.08,1.03,3.25-.45.98-1.09,1.83-1.97,2.47-.45.33-.95.55-1.51.6-.85.08-1.53-.26-1.88-1.05-.18-.41-.25-.87-.32-1.14ZM26.87,19.14c0-.58-.3-1-.78-1.14-.48-.14-1.01.02-1.24.47-.27.5-.49,1.03-.67,1.57-.1.3-.13.65-.08.97.1.69.16.79.86.48.91-.42,1.45-1.22,1.88-2.09.04-.09.04-.21.04-.25Z"/>
  <path class="cls-1" d="M10.48,5.97c-.05.23-.1.63-.24.99-.37.95-1.21,1.4-2.2,1.15-.42-.1-.85-.29-1.2-.53-.92-.63-1.56-1.51-2.02-2.51-.53-1.18-.06-2.57,1.05-3.24,1.1-.67,2.56-.45,3.35.58.75.99,1.2,2.13,1.27,3.57ZM8.97,5.76c-.09-.89-.42-1.66-.89-2.37-.3-.46-.93-.56-1.41-.3-.5.27-.74.88-.49,1.38.37.76.87,1.45,1.62,1.89.26.15.64.3.87.2.18-.08.21-.52.3-.8Z"/>
</svg>