<?xml version="1.0" encoding="UTF-8"?>
<svg id="Layer_1" data-name="Layer 1" xmlns="http://www.w3.org/2000/svg" viewBox="0 0 479.24 480">
  <defs>
    <style>
      .cls-1 {
        stroke-width: 0px;
      }
    </style>
  </defs>
  <path class="cls-1" d="M134.79,480H0C0,320,0,160,0,0c159.75,0,319.5,0,479.24,0-.08,1.49-.22,2.98-.22,4.47,0,157.02,0,314.04,0,471.05,0,1.49.14,2.98.22,4.47h-134.79c3.78-2.8,5.94-6.09,4.67-11.18-6.53-26.35-8.71-53.17-8.49-80.26.03-3.06,1.11-4.84,3.37-6.85,8.65-7.69,17.85-15,25.29-23.77,18.7-22.06,28.46-47.14,23.39-76.82-2.52-14.73-5.9-29.1-11.61-42.92-.82-1.99-1.42-4.4-1.12-6.46,2.18-14.69,4.82-29.32,6.94-44.02,3.04-21.04,5.08-42.18,4.15-63.48-.41-9.36-1.31-18.72-5.41-27.38-3.82-8.07-10.1-10.87-18.73-8.58-10.57,2.81-19.66,8.48-28.41,14.73-18.86,13.47-35.58,29.4-51.85,45.82-2.07,2.08-4,2.7-6.93,2.15-26.5-4.97-53.05-4.96-79.55-.11-3.54.65-5.73-.13-8.17-2.6-15.98-16.18-32.46-31.82-51.01-45.08-8.65-6.18-17.6-11.85-27.99-14.76-9.45-2.65-16.06.43-19.87,9.53-1.15,2.75-2.38,5.63-2.69,8.54-1.04,9.79-2.41,19.62-2.34,29.43.19,29.06,4.41,57.75,9.62,86.27,1.4,7.66,1.57,14.55-1.75,22.06-6.2,14.01-8.88,29.16-10.46,44.32-1.92,18.45,2.84,35.71,11.79,51.78,9.4,16.9,22.87,30.13,38.12,41.73,1.39,1.06,2.92,3.03,2.96,4.61.64,27.08-1.47,53.93-7.85,80.3-1.37,5.64-.47,9.75,4.26,13Z"/>
</svg>